HIERARCHY
ROOT joint_Root
{
	OFFSET 0.0 0.0 0.0
	CHANNELS 6 Xposition Yposition Zposition Zrotation Xrotation Yrotation 
	JOINT Hips
	{
		OFFSET 4.5925 91.4895 -427.239
		CHANNELS 6 Xposition Yposition Zposition Zrotation Xrotation Yrotation 
		JOINT Spine
		{
			OFFSET 15.7357 0.0 0.0
			CHANNELS 6 Xposition Yposition Zposition Zrotation Xrotation Yrotation 
			JOINT Chest
			{
				OFFSET 8.98455 -0.406207 0.0
				CHANNELS 6 Xposition Yposition Zposition Zrotation Xrotation Yrotation 
				JOINT Neck
				{
					OFFSET 16.3773 0.0 0.0
					CHANNELS 6 Xposition Yposition Zposition Zrotation Xrotation Yrotation 
					JOINT Head
					{
						OFFSET 6.45672 0.0 0.0
						CHANNELS 6 Xposition Yposition Zposition Zrotation Xrotation Yrotation 
						End Site
						{
							OFFSET 0.0 0.0 0.0
						}
					}
				}
				JOINT Shoulder_L
				{
					OFFSET 12.9942 -0.242716 4.98039
					CHANNELS 6 Xposition Yposition Zposition Zrotation Xrotation Yrotation 
					JOINT UpperArm_L
					{
						OFFSET 5.34809 0.0 0.0
						CHANNELS 6 Xposition Yposition Zposition Zrotation Xrotation Yrotation 
						JOINT LowerArm_L
						{
							OFFSET 24.3286 1.87007e-05 0.0
							CHANNELS 6 Xposition Yposition Zposition Zrotation Xrotation Yrotation 
							JOINT Hand_L
							{
								OFFSET 22.2916 0.0 0.0
								CHANNELS 6 Xposition Yposition Zposition Zrotation Xrotation Yrotation 
								End Site
								{
									OFFSET 0.0 0.0 0.0
								}
							}
						}
					}
				}
				JOINT Shoulder_R
				{
					OFFSET 12.9945 -0.242716 -4.98039
					CHANNELS 6 Xposition Yposition Zposition Zrotation Xrotation Yrotation 
					JOINT UpperArm_R
					{
						OFFSET -5.34813 0.0 0.0
						CHANNELS 6 Xposition Yposition Zposition Zrotation Xrotation Yrotation 
						JOINT LowerArm_R
						{
							OFFSET -24.3289 0.000322201 0.0
							CHANNELS 6 Xposition Yposition Zposition Zrotation Xrotation Yrotation 
							JOINT Hand_R
							{
								OFFSET -22.2915 -0.000108084 0.0
								CHANNELS 6 Xposition Yposition Zposition Zrotation Xrotation Yrotation 
								End Site
								{
									OFFSET 0.0 0.0 0.0
								}
							}
						}
					}
				}
			}
		}
		JOINT UpperLeg_L
		{
			OFFSET -2.19248 -6.46944 0.0
			CHANNELS 6 Xposition Yposition Zposition Zrotation Xrotation Yrotation 
			JOINT LowerLeg_L
			{
				OFFSET 39.0811 0.0 -1.23785e-05
				CHANNELS 6 Xposition Yposition Zposition Zrotation Xrotation Yrotation 
				JOINT Foot_L
				{
					OFFSET 40.9854 0.0 -1.26872e-05
					CHANNELS 6 Xposition Yposition Zposition Zrotation Xrotation Yrotation 
					JOINT Toes_L
					{
						OFFSET 11.7543 0.0 0.0
						CHANNELS 6 Xposition Yposition Zposition Zrotation Xrotation Yrotation 
						End Site
						{
							OFFSET 0.0 0.0 0.0
						}
					}
				}
			}
		}
		JOINT UpperLeg_R
		{
			OFFSET -2.19251 6.46944 0.0
			CHANNELS 6 Xposition Yposition Zposition Zrotation Xrotation Yrotation 
			JOINT LowerLeg_R
			{
				OFFSET -39.0811 -0.00228153 -0.0401928
				CHANNELS 6 Xposition Yposition Zposition Zrotation Xrotation Yrotation 
				JOINT Foot_R
				{
					OFFSET -40.9854 0.0 0.0
					CHANNELS 6 Xposition Yposition Zposition Zrotation Xrotation Yrotation 
					JOINT Toes_R
					{
						OFFSET -11.7543 0.0 0.0
						CHANNELS 6 Xposition Yposition Zposition Zrotation Xrotation Yrotation 
						End Site
						{
							OFFSET 0.0 0.0 0.0
						}
					}
				}
			}
		}
	}
}
MOTION
Frames:	4
Frame Time:	0.0333333
0.000000 0.000000 0.000000 0.000000 0.000000 -0.000000 2.502970 82.248700 -0.750186 90.938900 0.516892 15.774600 15.735700 0.000005 -0.000001 102.561000 79.176900 -102.305000 8.984550 -0.406207 -0.000000 13.383600 4.670200 -0.034992 16.377300 -0.000001 -0.000001 0.073376 -8.181490 3.538080 6.456720 -0.000001 -0.000000 -0.914932 -11.851100 4.114490 12.994200 -0.242716 4.980390 -92.279100 5.834070 -68.617400 5.348090 -0.000007 -0.000001 -73.057000 1.142850 15.493300 24.328600 0.000019 0.000005 -8.125710 -13.956700 -30.627600 22.291600 -0.000001 0.000005 20.958300 5.159320 3.718080 12.994500 -0.242716 -4.980390 88.517700 8.771710 -80.369200 -5.348130 -0.000001 -0.000004 -61.769800 30.080800 -9.815460 -24.328900 0.000322 -0.000009 -0.640792 -2.273830 -15.715500 -22.291500 -0.000108 -0.000004 16.502600 5.404220 -3.074910 -2.192480 -6.469440 -0.000000 -176.106000 -15.849100 -10.169200 39.081100 -0.000007 -0.000012 -0.013669 0.007382 61.643900 40.985400 -0.000006 -0.000013 7.423660 9.431310 -86.110500 11.754300 -0.000000 0.000003 -0.000021 -0.000258 -16.587700 -2.192510 6.469440 -0.000001 170.428000 14.996100 169.617000 -39.081100 -0.002282 -0.040193 0.098229 -0.049478 62.499500 -40.985400 0.000008 0.000006 4.293900 5.263670 -85.228700 -11.754300 -0.000006 -0.000006 -0.004600 -0.018286 -17.138200
0.000000 0.000000 0.000000 0.000000 0.000000 -0.000000 3.386720 84.259800 -0.395416 91.278800 -2.464890 14.692700 15.735700 0.000005 -0.000001 104.344000 79.996300 -103.142000 8.984550 -0.406207 -0.000000 11.597800 4.955920 1.900350 16.377300 -0.000001 -0.000001 1.501190 -7.187420 3.085350 6.456720 -0.000001 -0.000000 -0.492161 -10.363200 1.405050 12.994200 -0.242716 4.980390 -91.534400 3.744380 -67.694900 5.348090 -0.000007 -0.000001 -71.744800 -4.208920 14.965300 24.328600 0.000019 0.000005 -5.796370 -11.220800 -27.542100 22.291600 -0.000001 0.000005 20.463700 5.112690 4.824140 12.994500 -0.242716 -4.980390 88.525600 7.863350 -79.344800 -5.348130 -0.000001 -0.000004 -62.064100 29.609400 -9.700090 -24.328900 0.000322 -0.000009 0.048031 0.175112 -15.633200 -22.291500 -0.000108 -0.000004 16.985000 5.373960 -2.113100 -2.192480 -6.469440 -0.000000 -176.966000 -17.673000 -7.688920 39.081100 -0.000007 -0.000012 -0.058334 0.040142 55.469400 40.985400 -0.000006 -0.000013 6.832540 8.281040 -83.469100 11.754300 -0.000000 0.000003 -0.000022 -0.000269 -16.588100 -2.192510 6.469440 -0.000001 169.667000 14.716800 170.938000 -39.081100 -0.002282 -0.040193 0.068274 -0.042535 56.823000 -40.985400 0.000008 0.000006 4.498430 8.390530 -82.049400 -11.754300 -0.000006 -0.000006 -0.001737 -0.025379 -17.605100
0.000000 0.000000 0.000000 0.000000 0.000000 -0.000000 3.970410 86.527000 -0.227698 91.134200 -4.663110 12.776600 15.735700 0.000005 -0.000001 106.393000 81.316300 -104.019000 8.984550 -0.406207 -0.000000 8.821660 4.898390 4.368670 16.377300 -0.000001 -0.000001 4.059280 -5.661410 1.899960 6.456720 -0.000001 -0.000000 0.290520 -8.331300 -2.550800 12.994200 -0.242716 4.980390 -90.869200 2.050930 -67.024000 5.348090 -0.000007 -0.000001 -64.837400 -13.413100 9.882490 24.328600 0.000019 0.000005 -4.503760 -8.139580 -29.085200 22.291600 -0.000001 0.000005 21.281800 5.081090 5.543760 12.994500 -0.242716 -4.980390 88.688700 6.658860 -78.832500 -5.348130 -0.000001 -0.000004 -63.283200 29.363000 -8.210170 -24.328900 0.000322 -0.000009 0.163155 0.587178 -15.620400 -22.291500 -0.000108 -0.000004 18.067800 5.375660 -2.161690 -2.192480 -6.469440 -0.000000 -177.620000 -18.859400 -5.765900 39.081100 -0.000007 -0.000012 -0.054705 0.049249 48.006200 40.985400 -0.000006 -0.000013 6.203940 7.635290 -79.924100 11.754300 -0.000000 0.000003 -0.000014 -0.000188 -16.584900 -2.192510 6.469440 -0.000001 169.678000 15.604000 172.170000 -39.081100 -0.002282 -0.040193 0.043307 -0.033995 49.681000 -40.985400 0.000008 0.000006 4.323200 11.560700 -77.830600 -11.754300 -0.000006 -0.000006 -0.002737 -0.037586 -18.101600
0.000000 0.000000 0.000000 0.000000 0.000000 -0.000000 4.237470 88.426900 -0.278574 90.902100 -6.270470 10.482500 15.735700 0.000005 -0.000001 108.362000 82.760200 -105.048000 8.984550 -0.406207 -0.000000 5.868710 4.494760 6.393170 16.377300 -0.000001 -0.000001 6.919790 -4.001180 0.966676 6.456720 -0.000001 -0.000000 0.998764 -6.704030 -6.407400 12.994200 -0.242716 4.980390 -90.212300 0.489176 -66.544400 5.348090 -0.000007 -0.000001 -56.371100 -23.086300 0.370036 24.328600 0.000019 0.000005 -5.621980 -7.993460 -35.301300 22.291600 -0.000001 0.000005 22.225400 5.128610 4.447900 12.994500 -0.242716 -4.980390 88.867100 5.638670 -78.620500 -5.348130 -0.000001 -0.000004 -64.514700 29.949500 -6.886930 -24.328900 0.000322 -0.000009 0.008218 0.034420 -15.041500 -22.291500 -0.000108 -0.000004 17.033600 5.375520 -2.155960 -2.192480 -6.469440 -0.000000 -178.236000 -19.660500 -4.678900 39.081100 -0.000007 -0.000012 -0.043019 0.049548 40.967000 40.985400 -0.000006 -0.000013 5.612100 7.339590 -76.365100 11.754300 -0.000000 0.000003 -0.000007 -0.000102 -16.581500 -2.192510 6.469440 -0.000001 170.410000 16.227900 172.803000 -39.081100 -0.002282 -0.040193 0.024228 -0.022598 42.842900 -40.985400 0.000008 0.000006 3.548040 13.555800 -73.725100 -11.754300 -0.000006 -0.000006 -0.003654 -0.047796 -18.517100
